<svg width="539" height="556" viewBox="0 0 539 556" fill="none" xmlns="http://www.w3.org/2000/svg">
<path opacity="0.7" d="M39.4784 172.878C39.4784 172.878 4.54559 263.091 53.6369 353.932C102.728 444.772 203.843 492.761 284.772 533.796C365.701 574.83 449.738 554.845 489.67 487.636C529.602 420.427 474.835 372.451 474.76 276.611C474.685 180.771 489.106 155.399 437.171 74.4318C385.235 -6.53506 257.921 -24.465 161.643 35.5898C65.3647 95.6446 39.4784 172.878 39.4784 172.878Z" fill="white"/>
<path d="M37.7117 82.8518C41.9255 77.815 46.5343 73.1224 51.4943 68.8185C87.1789 37.9203 138.137 32.0313 182.192 45.8892C226.246 59.747 263.96 91.184 294.483 127.821C308.428 144.573 321.685 163.004 340.354 173.241C364.423 186.447 392.302 183.678 418.326 187.562C512.951 201.696 543.786 334.398 479.133 403.462C453.647 430.676 418.076 446.063 384.346 457.552C337.635 473.515 288.769 483.977 239.766 482.023C190.762 480.068 141.432 465.108 101.939 434.021C50.2539 393.287 19.1803 327.933 6.23709 260.736C-0.31594 226.743 -2.63393 191.359 3.85645 157.341C9.08133 130.001 20.3706 103.538 37.7117 82.8518Z" fill="#219EBC"/>
<path opacity="0.7" d="M418.326 187.562C392.302 183.678 364.449 186.447 340.354 173.241C321.685 163.004 308.428 144.573 294.483 127.821C263.96 91.184 226.259 59.747 182.192 45.8892C138.125 32.0313 87.1789 37.9203 51.4818 68.7684C46.5218 73.0723 41.913 77.7649 37.6992 82.8017C20.3581 103.488 9.06881 129.951 3.86899 157.291C-2.62139 191.309 -0.303397 226.693 6.24963 260.686C19.1803 327.933 50.2539 393.287 101.964 434.022C141.433 465.108 190.749 480.068 239.791 482.023C288.832 483.977 337.66 473.515 384.371 457.552C418.101 446.025 453.672 430.676 479.158 403.462C543.786 334.398 512.95 201.696 418.326 187.562Z" fill="white"/>
<path d="M1.25298 517.757H538" stroke="#263238" stroke-linecap="round" stroke-linejoin="round"/>
<path d="M270.804 113.612V117.998" stroke="#219EBC" stroke-width="3" stroke-linejoin="round"/>
<path d="M270.804 127.633V142.08" stroke="#219EBC" stroke-width="3" stroke-linejoin="round" stroke-dasharray="7.68 7.68"/>
<path d="M270.804 146.891V151.276H266.419" stroke="#219EBC" stroke-width="3" stroke-linejoin="round"/>
<path d="M257.56 151.276H120.285" stroke="#219EBC" stroke-width="3" stroke-linejoin="round" stroke-dasharray="7.07 7.07"/>
<path d="M115.862 151.276H111.477V155.662" stroke="#219EBC" stroke-width="3" stroke-linejoin="round"/>
<path d="M111.477 162.854V173.642" stroke="#219EBC" stroke-width="3" stroke-linejoin="round" stroke-dasharray="5.74 5.74"/>
<path d="M111.477 177.238V181.623" stroke="#219EBC" stroke-width="3" stroke-linejoin="round"/>
<path d="M133.742 134.437H151.546" stroke="#263238" stroke-linecap="round" stroke-linejoin="round"/>
<path d="M137.664 91.6476C134.096 93.3379 131.278 96.2845 129.747 99.9233C128.217 103.562 128.082 107.637 129.369 111.369C129.081 111.369 128.793 111.369 128.492 111.369C126.942 111.318 125.398 111.58 123.951 112.137C122.504 112.695 121.184 113.539 120.069 114.617C118.955 115.695 118.069 116.987 117.463 118.415C116.858 119.842 116.546 121.377 116.546 122.928C116.546 124.479 116.858 126.014 117.463 127.441C118.069 128.869 118.955 130.161 120.069 131.239C121.184 132.317 122.504 133.161 123.951 133.719C125.398 134.276 126.942 134.538 128.492 134.487" stroke="#263238" stroke-linecap="round" stroke-linejoin="round"/>
<path d="M172.734 78.1406C167.439 76.4748 161.723 76.7622 156.621 78.9507C151.52 81.1393 147.372 85.0839 144.931 90.0689H144.555" stroke="#263238" stroke-linecap="round" stroke-linejoin="round"/>
<path d="M191.579 96.9853C190.619 96.9862 189.66 97.0574 188.71 97.1983C187.94 91.2875 184.919 85.9015 180.277 82.1627" stroke="#263238" stroke-linecap="round" stroke-linejoin="round"/>
<path d="M162.723 134.437H191.541C194.006 134.446 196.448 133.97 198.728 133.033C201.008 132.097 203.08 130.72 204.826 128.98C206.573 127.241 207.958 125.174 208.904 122.898C209.849 120.622 210.336 118.182 210.336 115.717" stroke="#263238" stroke-linecap="round" stroke-linejoin="round"/>
<path d="M358.261 135.476H370.34" stroke="#263238" stroke-linecap="round" stroke-linejoin="round"/>
<path d="M360.918 106.445C359.047 107.324 357.465 108.717 356.356 110.46C355.247 112.204 354.656 114.227 354.653 116.294C354.656 117.495 354.855 118.689 355.242 119.827C355.046 119.814 354.849 119.814 354.653 119.827C352.572 119.827 350.577 120.653 349.106 122.124C347.636 123.595 346.809 125.59 346.809 127.67C346.809 129.751 347.636 131.746 349.106 133.217C350.577 134.688 352.572 135.514 354.653 135.514" stroke="#263238" stroke-linecap="round" stroke-linejoin="round"/>
<path d="M384.712 97.2734C383.183 96.7948 381.59 96.5498 379.988 96.5467C377.038 96.5477 374.148 97.379 371.649 98.9456C369.149 100.512 367.141 102.751 365.854 105.405H365.604" stroke="#263238" stroke-linecap="round" stroke-linejoin="round"/>
<path d="M397.504 110.116C396.85 110.118 396.197 110.164 395.55 110.254C395.032 106.252 392.984 102.606 389.836 100.08" stroke="#263238" stroke-linecap="round" stroke-linejoin="round"/>
<path d="M377.87 135.477H397.454C400.824 135.477 404.055 134.138 406.438 131.755C408.821 129.373 410.159 126.141 410.159 122.771" stroke="#263238" stroke-linecap="round" stroke-linejoin="round"/>
<path d="M312.791 52.367C311.281 52.3652 309.773 52.4783 308.28 52.7053C307.284 44.9322 303.801 37.6895 298.351 32.0577C292.902 26.426 285.777 22.707 278.041 21.4557C270.305 20.2044 262.371 21.4877 255.424 25.1143C248.477 28.7409 242.889 34.5163 239.492 41.579C239.292 41.579 239.104 41.579 238.903 41.579C234.889 41.5831 230.934 42.5458 227.366 44.3871C223.799 46.2284 220.723 48.895 218.394 52.165C216.066 55.435 214.552 59.2138 213.978 63.1871C213.405 67.1603 213.788 71.2131 215.097 75.0082C214.646 75.0082 214.182 74.933 213.719 74.933C208.9 74.933 204.279 76.8471 200.872 80.2543C197.465 83.6615 195.551 88.2826 195.551 93.1011C195.551 97.9195 197.465 102.541 200.872 105.948C204.279 109.355 208.9 111.269 213.719 111.269H312.841C320.65 111.269 328.14 108.167 333.662 102.645C339.184 97.123 342.286 89.6336 342.286 81.8243C342.286 74.0151 339.184 66.5257 333.662 61.0037C328.14 55.4818 320.65 52.3796 312.841 52.3796L312.791 52.367Z" fill="white" stroke="#263238" stroke-miterlimit="10"/>
<path d="M270.954 82.1877V61.1253" stroke="#263238" stroke-linecap="round" stroke-linejoin="round"/>
<path d="M282.645 68.2923L270.954 56.6021L259.277 68.2923" stroke="#263238" stroke-linecap="round" stroke-linejoin="round"/>
<path d="M270.954 86.8989V91.6476" stroke="#263238" stroke-linecap="round" stroke-linejoin="round"/>
<path d="M270.954 97.1983V100.832" stroke="#263238" stroke-linecap="round" stroke-linejoin="round"/>
<path d="M233.403 517.757H208.582C207.194 517.803 205.815 517.533 204.547 516.969C203.279 516.404 202.155 515.56 201.26 514.498C200.365 513.437 199.723 512.187 199.381 510.842C199.038 509.496 199.006 508.091 199.285 506.731L208.895 446.488C209.447 443.461 211.021 440.715 213.354 438.708C215.687 436.702 218.637 435.556 221.713 435.462H297.843" stroke="#263238" stroke-linecap="round" stroke-linejoin="round"/>
<path d="M219.533 418.748H241.836C242.512 418.749 243.173 418.954 243.732 419.336C244.291 419.718 244.721 420.26 244.968 420.89L247.624 427.719H294.861C297.174 427.72 299.428 428.446 301.307 429.794C303.186 431.143 304.595 433.046 305.336 435.237L307.992 435.462C309.38 435.417 310.759 435.687 312.027 436.251C313.296 436.816 314.419 437.66 315.314 438.721C316.209 439.783 316.852 441.033 317.194 442.378C317.536 443.723 317.568 445.129 317.289 446.488L307.704 506.731C307.148 509.756 305.573 512.5 303.241 514.506C300.909 516.512 297.961 517.659 294.886 517.757H247.787" stroke="#263238" stroke-linecap="round" stroke-linejoin="round"/>
<path d="M197.531 465.108V438.795C197.537 436.007 198.598 433.325 200.502 431.289C202.406 429.252 205.011 428.012 207.792 427.819L210.486 420.903C210.731 420.271 211.162 419.729 211.721 419.347C212.28 418.964 212.941 418.76 213.619 418.76" stroke="#263238" stroke-linecap="round" stroke-linejoin="round"/>
<path d="M208.582 517.757C205.651 517.757 202.84 516.593 200.767 514.521C198.695 512.448 197.531 509.637 197.531 506.706V482.248" stroke="#263238" stroke-linecap="round" stroke-linejoin="round"/>
<path d="M444.904 517.757C443.426 517.757 442.007 517.17 440.962 516.124C439.916 515.079 439.329 513.661 439.329 512.182V477.913C439.332 476.507 439.867 475.154 440.827 474.126C441.787 473.099 443.101 472.473 444.503 472.375L445.869 468.892C445.991 468.571 446.207 468.296 446.489 468.101C446.771 467.906 447.105 467.802 447.448 467.802H461.682C462.024 467.802 462.359 467.906 462.64 468.101C462.922 468.296 463.139 468.571 463.26 468.892L464.601 472.337H488.407C489.571 472.334 490.706 472.695 491.654 473.369C492.602 474.043 493.316 474.996 493.695 476.096" fill="#FB8500"/>
<mask id="mask0_201_1978" style="mask-type:luminance" maskUnits="userSpaceOnUse" x="439" y="467" width="55" height="51">
<path d="M444.904 517.757C443.426 517.757 442.007 517.17 440.962 516.124C439.916 515.079 439.329 513.661 439.329 512.182V477.913C439.332 476.507 439.867 475.154 440.827 474.126C441.787 473.099 443.101 472.473 444.503 472.375L445.869 468.892C445.991 468.571 446.207 468.296 446.489 468.101C446.771 467.906 447.105 467.802 447.448 467.802H461.682C462.024 467.802 462.359 467.906 462.64 468.101C462.922 468.296 463.139 468.571 463.26 468.892L464.601 472.337H488.407C489.571 472.334 490.706 472.695 491.654 473.369C492.602 474.043 493.316 474.996 493.695 476.096" fill="white"/>
</mask>
<g mask="url(#mask0_201_1978)">
<path opacity="0.3" d="M444.904 517.757C443.426 517.757 442.007 517.17 440.962 516.124C439.916 515.079 439.329 513.661 439.329 512.182V477.913C439.332 476.507 439.867 475.154 440.827 474.126C441.787 473.099 443.101 472.473 444.503 472.375L445.869 468.892C445.991 468.571 446.207 468.296 446.489 468.101C446.771 467.906 447.105 467.802 447.448 467.802H461.682C462.024 467.802 462.359 467.906 462.64 468.101C462.922 468.296 463.139 468.571 463.26 468.892L464.601 472.337H488.407C489.571 472.334 490.706 472.695 491.654 473.369C492.602 474.043 493.316 474.996 493.695 476.096" fill="black" fill-opacity="0.7"/>
</g>
<path d="M444.904 517.757C443.426 517.757 442.007 517.17 440.962 516.124C439.916 515.079 439.329 513.661 439.329 512.182V477.913C439.332 476.507 439.867 475.154 440.827 474.126C441.787 473.099 443.101 472.473 444.503 472.375L445.869 468.892C445.991 468.571 446.207 468.296 446.489 468.101C446.771 467.906 447.105 467.802 447.448 467.802H461.682C462.024 467.802 462.359 467.906 462.64 468.101C462.922 468.296 463.139 468.571 463.26 468.892L464.601 472.337H488.407C489.571 472.334 490.706 472.695 491.654 473.369C492.602 474.043 493.316 474.996 493.695 476.096" stroke="#263238" stroke-linecap="round" stroke-linejoin="round"/>
<path d="M444.904 517.757H488.432C489.984 517.711 491.473 517.133 492.65 516.12C493.827 515.108 494.62 513.722 494.898 512.194L499.747 481.797C499.89 481.111 499.875 480.402 499.703 479.723C499.532 479.043 499.208 478.412 498.757 477.876C498.305 477.34 497.738 476.914 497.098 476.63C496.457 476.345 495.761 476.21 495.061 476.234H451.533C449.981 476.283 448.494 476.862 447.318 477.874C446.141 478.886 445.347 480.271 445.067 481.797L440.218 512.194C440.075 512.88 440.09 513.59 440.262 514.269C440.433 514.948 440.757 515.579 441.208 516.115C441.66 516.651 442.227 517.077 442.867 517.362C443.508 517.646 444.204 517.782 444.904 517.757Z" fill="#FB8500" stroke="#263238" stroke-linecap="round" stroke-linejoin="round"/>
<path d="M191.291 517.757C189.812 517.757 188.394 517.17 187.348 516.124C186.303 515.079 185.715 513.661 185.715 512.182V477.913C185.715 476.506 186.249 475.151 187.21 474.123C188.171 473.095 189.486 472.47 190.89 472.375L192.243 468.892C192.37 468.572 192.589 468.298 192.873 468.104C193.156 467.91 193.491 467.805 193.834 467.802H208.068C208.411 467.802 208.745 467.906 209.027 468.101C209.309 468.296 209.525 468.571 209.647 468.892L210.987 472.337H234.794C235.957 472.334 237.092 472.695 238.041 473.369C238.989 474.043 239.702 474.996 240.081 476.096" fill="#FB8500"/>
<mask id="mask1_201_1978" style="mask-type:luminance" maskUnits="userSpaceOnUse" x="185" y="467" width="56" height="51">
<path d="M191.291 517.757C189.812 517.757 188.394 517.17 187.348 516.124C186.303 515.079 185.715 513.661 185.715 512.182V477.913C185.715 476.506 186.249 475.151 187.21 474.123C188.171 473.095 189.486 472.47 190.89 472.375L192.243 468.892C192.37 468.572 192.589 468.298 192.873 468.104C193.156 467.91 193.491 467.805 193.834 467.802H208.068C208.411 467.802 208.745 467.906 209.027 468.101C209.309 468.296 209.525 468.571 209.647 468.892L210.987 472.337H234.794C235.957 472.334 237.092 472.695 238.041 473.369C238.989 474.043 239.702 474.996 240.081 476.096" fill="white"/>
</mask>
<g mask="url(#mask1_201_1978)">
<path opacity="0.3" d="M191.291 517.757C189.812 517.757 188.394 517.17 187.348 516.124C186.303 515.079 185.715 513.661 185.715 512.182V477.913C185.715 476.506 186.249 475.151 187.21 474.123C188.171 473.095 189.486 472.47 190.89 472.375L192.243 468.892C192.37 468.572 192.589 468.298 192.873 468.104C193.156 467.91 193.491 467.805 193.834 467.802H208.068C208.411 467.802 208.745 467.906 209.027 468.101C209.309 468.296 209.525 468.571 209.647 468.892L210.987 472.337H234.794C235.957 472.334 237.092 472.695 238.041 473.369C238.989 474.043 239.702 474.996 240.081 476.096" fill="black" fill-opacity="0.7"/>
</g>
<path d="M191.291 517.757C189.812 517.757 188.394 517.17 187.348 516.124C186.303 515.079 185.715 513.661 185.715 512.182V477.913C185.715 476.506 186.249 475.151 187.21 474.123C188.171 473.095 189.486 472.47 190.89 472.375L192.243 468.892C192.37 468.572 192.589 468.298 192.873 468.104C193.156 467.91 193.491 467.805 193.834 467.802H208.068C208.411 467.802 208.745 467.906 209.027 468.101C209.309 468.296 209.525 468.571 209.647 468.892L210.987 472.337H234.794C235.957 472.334 237.092 472.695 238.041 473.369C238.989 474.043 239.702 474.996 240.081 476.096" stroke="#263238" stroke-linecap="round" stroke-linejoin="round"/>
<path d="M191.291 517.757H234.819C236.373 517.714 237.865 517.137 239.044 516.124C240.223 515.111 241.019 513.724 241.297 512.194L246.146 481.797C246.289 481.111 246.274 480.402 246.102 479.723C245.931 479.043 245.607 478.412 245.156 477.876C244.704 477.34 244.137 476.914 243.497 476.63C242.856 476.345 242.16 476.21 241.46 476.234H197.906C196.356 476.285 194.87 476.865 193.694 477.877C192.518 478.888 191.723 480.272 191.441 481.797L186.592 512.194C186.452 512.881 186.469 513.591 186.642 514.27C186.815 514.949 187.14 515.58 187.592 516.115C188.044 516.651 188.612 517.077 189.253 517.361C189.894 517.646 190.59 517.781 191.291 517.757Z" fill="#FB8500" stroke="#263238" stroke-linecap="round" stroke-linejoin="round"/>
<path d="M344.479 500.053C344.479 500.053 346.458 512.119 344.479 517.757H304.547C304.547 517.757 302.855 513.535 304.547 510.879C306.238 508.222 318.893 506.681 322.827 503.085C325.846 500.085 328.577 496.809 330.984 493.299L344.479 500.053Z" fill="#219EBC" stroke="#263238" stroke-linecap="round" stroke-linejoin="round"/>
<path d="M303.795 515.64H345.005L345.356 517.757H303.795V515.64Z" fill="white" stroke="#263238" stroke-linecap="round" stroke-linejoin="round"/>
<path d="M334.881 498.537C334.881 498.537 331.122 499.439 330.696 499.577C330.27 499.715 326.624 505.353 322.965 506.33C319.307 507.308 315.648 507.132 316.212 508.912" stroke="#263238" stroke-linecap="round" stroke-linejoin="round"/>
<path d="M326.561 498.587L330.847 501.744" stroke="#263238" stroke-linecap="round" stroke-linejoin="round"/>
<path d="M324.582 501.344L328.704 504.376" stroke="#263238" stroke-linecap="round" stroke-linejoin="round"/>
<path d="M321.938 503.774L325.521 507.233" stroke="#263238" stroke-linecap="round" stroke-linejoin="round"/>
<path d="M318.329 505.528L319.87 508.962" stroke="#263238" stroke-linecap="round" stroke-linejoin="round"/>
<path d="M345.13 505.529C340.483 505.17 335.812 505.776 331.41 507.308C324.231 509.814 321.762 512.019 321.938 512.683C322.113 513.347 322.965 515.302 322.965 515.302H326.561C326.561 515.302 325.308 513.009 325.521 512.683C325.734 512.357 338.051 507.571 345.13 508.41V505.529Z" fill="#263238"/>
<path d="M412.177 517.757C412.177 517.757 413.705 511.881 411.914 509.713C408.681 505.804 412.302 502.521 409.057 501.156L407.704 502.734C407.441 501.143 408.192 496.269 402.178 495.642C394.911 494.866 394.773 500.166 394.372 501.907L394.497 499.477C391.39 499.477 393.006 502.571 388.295 507.633C387.068 509 386.134 510.603 385.55 512.344C384.966 514.085 384.745 515.927 384.9 517.757H412.177Z" fill="#219EBC" stroke="#263238" stroke-linecap="round" stroke-linejoin="round"/>
<path d="M438.514 294.228C441.872 296.182 450.53 314.626 445.481 351.225C440.431 387.825 425.295 459.407 422.752 470.358C420.208 481.309 411.325 507.633 411.325 507.633C411.325 507.633 407.942 496.206 391.653 502.296C391.515 502.348 391.365 502.362 391.219 502.337C391.073 502.312 390.937 502.248 390.824 502.152C390.712 502.056 390.627 501.931 390.579 501.791C390.53 501.651 390.521 501.501 390.55 501.356L394.147 482.699C394.147 482.699 394.397 469.055 395.562 465.634C399.985 452.753 402.203 402.985 403.669 396.031C405.135 389.078 402.253 369.105 402.253 369.105C402.253 369.105 381.817 417.971 381.153 422.807C380.489 427.644 368.022 447.591 368.022 447.591L365.817 465.96C365.817 465.96 349.228 494.377 346.308 502.86L326.561 498.537L327.113 484.491L332.425 482.662L341.722 450.724C344.672 439.657 348.287 428.778 352.548 418.146C356.946 407.045 369.413 364.031 369.413 364.031C373.285 359.821 376.931 336.54 376.931 336.54L382.882 307.208L438.514 294.228Z" fill="#263238"/>
<path d="M355.593 216.619L314.996 247.191L288.91 205.981L279.137 207.234C279.137 207.234 298.595 260.385 309.358 265.685C320.121 270.985 360.73 241.59 360.73 241.59" fill="white"/>
<path d="M355.593 216.619L314.996 247.191L288.91 205.981L279.137 207.234C279.137 207.234 298.595 260.385 309.358 265.685C320.121 270.985 360.73 241.59 360.73 241.59" stroke="#263238" stroke-linecap="round" stroke-linejoin="round"/>
<path d="M364.514 210.504C364.514 210.504 352.761 214.602 344.88 221.43C336.999 228.259 324.431 238.458 324.431 238.458C324.431 238.458 331.511 255.461 339.73 262.39L357.272 255.373L364.514 210.504Z" fill="#219EBC"/>
<path d="M364.514 210.504C364.514 210.504 352.761 214.602 344.88 221.43C336.999 228.259 324.431 238.458 324.431 238.458C324.431 238.458 331.511 255.461 339.73 262.39L357.272 255.373L364.514 210.504Z" stroke="#263238" stroke-linecap="round" stroke-linejoin="round"/>
<path d="M357.234 255.373C364.063 272.088 374.776 292.962 374.776 292.962L379.499 316.255C379.499 316.255 397.241 329.774 417.59 324.098C441.396 317.458 445.293 302.385 445.293 302.385L436.221 284.141C433.114 266.6 429.054 225.252 415.084 215.742C401.113 206.232 377.131 205.467 367.471 209.301C358.863 212.709 354.089 215.303 351.746 218.448" fill="#219EBC"/>
<path d="M357.234 255.373C364.063 272.088 374.776 292.962 374.776 292.962L379.499 316.255C379.499 316.255 397.241 329.774 417.59 324.098C441.396 317.458 445.293 302.385 445.293 302.385L436.221 284.141C433.114 266.6 429.054 225.252 415.084 215.742C401.113 206.232 377.131 205.467 367.471 209.301C358.863 212.709 354.089 215.303 351.746 218.448" stroke="#263238" stroke-linecap="round" stroke-linejoin="round"/>
<path d="M390.037 212.559C390.037 212.559 384.799 222.282 375.49 221.33C367.746 220.566 367.972 214.326 367.972 214.326C369.079 213.397 369.89 212.165 370.303 210.78C370.52 210.036 370.601 209.259 370.541 208.487C370.415 206.557 369.438 204.202 366.782 201.508L366.656 201.383C366.122 200.864 365.663 200.274 365.291 199.629C361.018 192.111 375.928 183.603 387.18 189.855C387.155 189.905 378.434 196.634 390.037 212.559Z" fill="white" stroke="#263238" stroke-linecap="round" stroke-linejoin="round"/>
<path d="M373.598 199.365C373.598 199.365 373.385 205.217 370.541 208.537C370.415 206.608 369.438 204.252 366.782 201.558C367.628 200.63 368.702 199.94 369.898 199.555C371.094 199.17 372.369 199.105 373.598 199.365Z" fill="#263238"/>
<path d="M388.922 182.676C393.132 164.595 384.398 156.764 378.672 154.384C369.501 150.625 357.572 156.564 354.866 166.6C352.16 176.637 354.59 178.942 354.465 183.052C354.377 185.934 352.598 187.349 354.565 194.579C355.818 199.353 357.998 207.008 366.168 205.643C368.667 205.196 371.092 204.403 373.372 203.287" fill="white"/>
<path d="M388.922 182.676C393.132 164.595 384.398 156.764 378.672 154.384C369.501 150.625 357.572 156.564 354.866 166.6C352.16 176.637 354.59 178.942 354.465 183.052C354.377 185.934 352.598 187.349 354.565 194.579C355.818 199.353 357.998 207.008 366.168 205.643C368.667 205.196 371.092 204.403 373.372 203.287" stroke="#263238" stroke-linecap="round" stroke-linejoin="round"/>
<path d="M365.115 176.799C365.115 176.799 368.498 175.546 370.315 179.518" stroke="#263238" stroke-linecap="round" stroke-linejoin="round"/>
<path d="M353.575 174.694C353.575 174.694 357.121 173.93 358.587 176.499" stroke="#263238" stroke-linecap="round" stroke-linejoin="round"/>
<path d="M359.539 181.623C359.539 181.623 356.044 187.663 356.106 188.49C356.282 191.071 359.565 189.905 359.565 189.905" stroke="#263238" stroke-linecap="round" stroke-linejoin="round"/>
<path d="M365.779 182.45C365.779 183.29 366.155 183.979 366.619 183.979C367.082 183.979 367.471 183.29 367.471 182.45C367.471 181.611 367.095 180.934 366.619 180.934C366.143 180.934 365.779 181.611 365.779 182.45Z" fill="#263238" stroke="#263238" stroke-linecap="round" stroke-linejoin="round"/>
<path d="M356.106 181.623C356.106 182.463 356.482 183.139 356.946 183.139C357.409 183.139 357.785 182.463 357.785 181.623C357.785 180.784 357.409 180.095 356.946 180.095C356.482 180.095 356.106 180.784 356.106 181.623Z" fill="#263238" stroke="#263238" stroke-linecap="round" stroke-linejoin="round"/>
<path d="M365.779 192.386C363.591 193.56 361.071 193.966 358.625 193.539" stroke="#263238" stroke-linecap="round" stroke-linejoin="round"/>
<path d="M365.115 193.076C365.007 193.81 364.666 194.491 364.143 195.019C363.62 195.546 362.942 195.893 362.208 196.007C361.884 196.054 361.554 196.03 361.239 195.94C360.924 195.849 360.632 195.692 360.382 195.48C360.133 195.268 359.931 195.006 359.79 194.71C359.649 194.414 359.572 194.092 359.565 193.765" stroke="#263238" stroke-linecap="round" stroke-linejoin="round"/>
<path d="M388.947 159.596C388.947 159.596 388.395 149.911 370.353 150.211C352.31 150.512 346.985 164.533 356.144 168.329C365.303 172.126 370.979 170.459 370.979 170.459C368.496 169.56 366.284 168.042 364.551 166.049C368.214 168.171 372.152 169.777 376.254 170.823C376.254 170.823 374.199 173.517 376.254 178.027C378.309 182.538 377.307 184.468 377.307 184.468C377.307 184.468 385.589 186.811 384.211 195.744C384.211 195.744 391.816 195.594 394.898 178.077C397.981 160.561 388.947 159.596 388.947 159.596Z" fill="#263238"/>
<path d="M378.672 185.846C378.672 185.846 381.98 179.669 385.451 181.172C388.922 182.676 386.503 190.056 383.496 192.449C380.489 194.842 378.672 192.449 378.672 192.449" fill="white"/>
<path d="M378.672 185.846C378.672 185.846 381.98 179.669 385.451 181.172C388.922 182.676 386.503 190.056 383.496 192.449C380.489 194.842 378.672 192.449 378.672 192.449" stroke="#263238" stroke-linecap="round" stroke-linejoin="round"/>
<path d="M348.326 234.699C350.343 242.831 351.395 249.234 357.234 255.373" stroke="#263238" stroke-linecap="round" stroke-linejoin="round"/>
<path d="M347.06 228.234C347.223 229.487 347.448 230.74 347.712 231.993" stroke="#263238" stroke-linecap="round" stroke-linejoin="round"/>
<path d="M417.377 250.286C417.377 250.286 441.559 276.423 447.448 275.446C453.337 274.468 456.482 264.821 455.179 262.152C453.876 259.483 432.137 234.16 432.137 234.16L417.377 250.286Z" fill="white" stroke="#263238" stroke-linecap="round" stroke-linejoin="round"/>
<path d="M408.38 225.715C406.025 233.922 405.035 242.756 408.957 249.634C410.924 255.523 422.363 261.137 426.285 266.048C438.602 263.041 443.827 247.404 443.827 247.404C443.827 247.404 436.76 237.293 429.568 226.642C422.376 215.992 408.167 212.045 408.167 212.045" fill="#219EBC"/>
<path d="M408.38 225.715C406.025 233.922 405.035 242.756 408.957 249.634C410.924 255.523 422.363 261.137 426.285 266.048C438.602 263.041 443.827 247.404 443.827 247.404C443.827 247.404 436.76 237.293 429.568 226.642C422.376 215.992 408.167 212.045 408.167 212.045" stroke="#263238" stroke-linecap="round" stroke-linejoin="round"/>
<path d="M289.173 206.445C289.173 206.445 285.151 197.01 282.645 194.065C280.139 191.121 277.633 189.053 276.931 188.953C275.19 188.753 269.514 191.898 269.514 191.898C269.514 191.898 269.514 193.677 272.583 193.414C272.583 193.414 268.148 196.183 267.935 198.35C267.722 200.518 270.441 203.588 271.017 204.778C271.063 204.939 271.146 205.086 271.26 205.207C271.374 205.328 271.516 205.421 271.673 205.476C271.83 205.531 271.998 205.548 272.163 205.525C272.328 205.501 272.485 205.439 272.621 205.342C272.621 205.342 277.407 211.858 282.031 212.309" fill="white"/>
<path d="M289.173 206.445C289.173 206.445 285.151 197.01 282.645 194.065C280.139 191.121 277.633 189.053 276.931 188.953C275.19 188.753 269.514 191.898 269.514 191.898C269.514 191.898 269.514 193.677 272.583 193.414C272.583 193.414 268.148 196.183 267.935 198.35C267.722 200.518 270.441 203.588 271.017 204.778C271.063 204.939 271.146 205.086 271.26 205.207C271.374 205.328 271.516 205.421 271.673 205.476C271.83 205.531 271.998 205.548 272.163 205.525C272.328 205.501 272.485 205.439 272.621 205.342C272.621 205.342 277.407 211.858 282.031 212.309" stroke="#263238" stroke-linecap="round" stroke-linejoin="round"/>
<path d="M272.621 205.342C273.031 204.84 273.252 204.211 273.248 203.563C273.248 203.563 275.165 203.563 275.265 201.884C275.265 201.884 278.084 202.059 276.906 198.476" stroke="#263238" stroke-linecap="round" stroke-linejoin="round"/>
<path d="M275.252 201.846C275.252 201.846 272.057 198.413 271.869 197.085" stroke="#263238" stroke-linecap="round" stroke-linejoin="round"/>
<path d="M273.235 203.525C273.235 203.525 269.727 200.393 269.915 198.977" stroke="#263238" stroke-linecap="round" stroke-linejoin="round"/>
<path d="M276.38 191.309C275.954 191.835 275.426 192.27 274.827 192.586C274.228 192.903 273.572 193.095 272.897 193.151" stroke="#263238" stroke-linecap="round" stroke-linejoin="round"/>
<path d="M275.641 192.086C276.234 192.552 276.78 193.077 277.27 193.652" stroke="#263238" stroke-linecap="round" stroke-linejoin="round"/>
<path d="M409.583 223.122C410.341 221.821 411.381 220.707 412.628 219.864" stroke="#263238" stroke-linecap="round" stroke-linejoin="round"/>
<path d="M384.875 515.64H412.778L412.177 517.757H384.9L384.875 515.64Z" fill="white" stroke="#263238" stroke-linecap="round" stroke-linejoin="round"/>
<path d="M393.833 507.383C393.833 507.383 402.993 504.351 407.415 508.147" stroke="#263238" stroke-linecap="round" stroke-linejoin="round"/>
<path d="M393.833 505.378C393.833 505.378 401.89 502.872 407.415 506.243" stroke="#263238" stroke-linecap="round" stroke-linejoin="round"/>
<path d="M394.309 503.411C394.309 503.411 401.89 500.554 407.415 504.463" stroke="#263238" stroke-linecap="round" stroke-linejoin="round"/>
<path d="M388.295 507.633L389.21 508.523C389.332 508.645 389.408 508.804 389.426 508.975C389.444 509.146 389.403 509.318 389.31 509.463C388.095 511.294 387.446 513.442 387.443 515.64H386.103C386.399 513.496 387.051 511.417 388.032 509.488L387.343 508.799L388.295 507.633Z" fill="#263238"/>
<path d="M420.208 279.518C418.63 281.723 397.179 307.622 387.155 306.219" stroke="#263238" stroke-linecap="round" stroke-linejoin="round"/>
<path d="M364.514 257.378C364.514 257.378 376.492 275.847 395.5 275.471" stroke="#263238" stroke-linecap="round" stroke-linejoin="round"/>
<g opacity="0.2">
<path d="M395.5 348.669C396.602 348.92 417.665 356.601 421.875 364.281" stroke="white" stroke-linecap="round" stroke-linejoin="round"/>
<path d="M400.624 359.821C399.572 361.312 390.601 389.316 386.842 396.996C383.083 404.677 370.127 439.134 367.158 441.113C367.158 441.113 363.186 461.161 360.705 464.406C358.224 467.651 345.406 493.3 345.406 493.3" stroke="white" stroke-linecap="round" stroke-linejoin="round"/>
<path d="M330.984 493.3L346.534 496.632" stroke="white" stroke-linecap="round" stroke-linejoin="round"/>
<path d="M394.309 494.966C394.309 494.966 406.751 493.851 410.974 498.587" stroke="white" stroke-linecap="round" stroke-linejoin="round"/>
<path d="M408.693 363.041C409.733 368.992 425.345 401.958 429.067 398.237" stroke="white" stroke-linecap="round" stroke-linejoin="round"/>
<path d="M402.642 366.023C402.642 366.023 400.812 357.841 402.541 354.12C403.205 352.704 389.16 357.59 384.449 356.475" stroke="white" stroke-linecap="round" stroke-linejoin="round"/>
<path d="M400.624 325.514C400.624 325.514 403.13 332.556 403.682 334.786C404.233 337.017 399.171 345.675 400.624 347.429" stroke="white" stroke-linecap="round" stroke-linejoin="round"/>
<path d="M434.768 318.924C434.768 318.924 438.238 324.236 438.238 328.158C438.238 332.08 442.937 333.797 442.937 333.797" stroke="white" stroke-linecap="round" stroke-linejoin="round"/>
<path d="M442.16 313.097C444.758 324.78 445.022 336.86 442.937 348.644C439.466 368.228 433.778 408.123 431.548 418.284C429.317 428.446 424.105 451.25 424.105 454.47C424.105 457.69 418.88 476.034 418.88 476.034" stroke="white" stroke-linecap="round" stroke-linejoin="round"/>
<path d="M420.146 448.305C419.394 448.305 405.523 461.687 402.053 461.925" stroke="white" stroke-linecap="round" stroke-linejoin="round"/>
<path d="M359.414 440.124C358.675 440.374 347.022 446.075 346.534 444.333" stroke="white" stroke-linecap="round" stroke-linejoin="round"/>
</g>
<path d="M417.777 336.691C416.304 336.809 414.844 336.336 413.718 335.377C412.593 334.419 411.894 333.052 411.776 331.579L409.019 297.41C408.911 296.009 409.337 294.618 410.21 293.517C411.084 292.416 412.341 291.685 413.73 291.471L414.808 287.9C414.899 287.564 415.09 287.264 415.357 287.04C415.623 286.816 415.952 286.679 416.299 286.647L430.495 285.532C430.837 285.503 431.179 285.579 431.476 285.749C431.774 285.919 432.013 286.176 432.162 286.484L433.778 289.805L457.584 287.9C458.747 287.806 459.909 288.079 460.909 288.678C461.909 289.278 462.696 290.176 463.16 291.246" fill="#FB8500"/>
<mask id="mask2_201_1978" style="mask-type:luminance" maskUnits="userSpaceOnUse" x="409" y="285" width="55" height="52">
<path d="M417.777 336.691C416.304 336.809 414.844 336.336 413.718 335.377C412.593 334.419 411.894 333.052 411.776 331.579L409.019 297.41C408.911 296.009 409.337 294.618 410.21 293.517C411.084 292.416 412.341 291.685 413.73 291.471L414.808 287.9C414.899 287.564 415.09 287.264 415.357 287.04C415.623 286.816 415.952 286.679 416.299 286.647L430.495 285.532C430.837 285.503 431.179 285.579 431.476 285.749C431.774 285.919 432.013 286.176 432.162 286.484L433.778 289.805L457.584 287.9C458.747 287.806 459.909 288.079 460.909 288.678C461.909 289.278 462.696 290.176 463.16 291.246" fill="white"/>
</mask>
<g mask="url(#mask2_201_1978)">
<path opacity="0.3" d="M417.777 336.691C416.304 336.809 414.844 336.336 413.718 335.377C412.593 334.419 411.894 333.052 411.776 331.579L409.019 297.41C408.911 296.009 409.337 294.618 410.21 293.517C411.084 292.416 412.341 291.685 413.73 291.471L414.808 287.9C414.899 287.564 415.09 287.264 415.357 287.04C415.623 286.816 415.952 286.679 416.299 286.647L430.495 285.532C430.837 285.503 431.179 285.579 431.476 285.749C431.774 285.919 432.013 286.176 432.162 286.484L433.778 289.805L457.584 287.9C458.747 287.806 459.909 288.079 460.909 288.678C461.909 289.278 462.696 290.176 463.16 291.246" fill="black" fill-opacity="0.7"/>
</g>
<path d="M417.777 336.691C416.304 336.809 414.844 336.336 413.718 335.377C412.593 334.419 411.894 333.052 411.776 331.579L409.019 297.41C408.911 296.009 409.337 294.618 410.21 293.517C411.084 292.416 412.341 291.685 413.73 291.471L414.808 287.9C414.899 287.564 415.09 287.264 415.357 287.04C415.623 286.816 415.952 286.679 416.299 286.647L430.495 285.532C430.837 285.503 431.179 285.579 431.476 285.749C431.774 285.919 432.013 286.176 432.162 286.484L433.778 289.805L457.584 287.9C458.747 287.806 459.909 288.079 460.909 288.678C461.909 289.278 462.696 290.176 463.16 291.246" stroke="#263238" stroke-linecap="round" stroke-linejoin="round"/>
<path d="M417.778 336.691L461.168 333.145C462.71 332.97 464.146 332.273 465.237 331.17C466.329 330.067 467.011 328.624 467.17 327.081L469.563 296.383C469.647 295.688 469.572 294.983 469.345 294.321C469.118 293.659 468.743 293.058 468.25 292.561C467.757 292.064 467.158 291.686 466.498 291.454C465.838 291.221 465.133 291.142 464.438 291.221L421.048 294.716C419.505 294.889 418.068 295.585 416.976 296.688C415.884 297.792 415.203 299.236 415.046 300.781L412.653 331.466C412.559 332.166 412.625 332.877 412.848 333.547C413.071 334.217 413.443 334.828 413.938 335.332C414.432 335.836 415.035 336.22 415.7 336.456C416.366 336.691 417.076 336.772 417.778 336.691Z" fill="#FB8500" stroke="#263238" stroke-linecap="round" stroke-linejoin="round"/>
<path d="M451.345 257.152C455.83 261.463 458.148 264.833 457.822 278.841C457.497 292.849 454.953 313.097 453.299 326.88L441.384 328.697C441.384 328.697 443.25 307.146 441.384 292.962C439.354 277.475 440.957 268.805 442.824 267.69" fill="white"/>
<path d="M451.345 257.152C455.83 261.463 458.148 264.833 457.822 278.841C457.497 292.849 454.953 313.097 453.299 326.88L441.384 328.697C441.384 328.697 443.25 307.146 441.384 292.962C439.354 277.475 440.957 268.805 442.824 267.69" stroke="#263238" stroke-linecap="round" stroke-linejoin="round"/>
<path d="M442.06 316.693C441.81 320.715 434.48 321.943 433.941 324.462C433.765 325.289 431.234 330.827 431.234 330.827C431.137 332.418 431.251 334.015 431.573 335.576C432.199 337.731 434.141 336.478 434.141 336.478L434.768 338.006C435.758 340.512 437.612 338.194 440.77 339.748C443.927 341.302 445.456 339.247 446.671 339.748C447.886 340.249 451.858 339.009 452.61 337.518C453.362 336.027 452.172 329.436 453.299 326.817C454.427 324.199 454.452 318.899 454.452 316.693" fill="white"/>
<path d="M442.06 316.693C441.81 320.715 434.48 321.943 433.941 324.462C433.765 325.289 431.234 330.827 431.234 330.827C431.137 332.418 431.251 334.015 431.573 335.576C432.199 337.731 434.141 336.478 434.141 336.478L434.768 338.006C435.758 340.512 437.612 338.194 440.77 339.748C443.927 341.302 445.456 339.247 446.671 339.748C447.886 340.249 451.858 339.009 452.61 337.518C453.362 336.027 452.172 329.436 453.299 326.817C454.427 324.199 454.452 318.899 454.452 316.693" stroke="#263238" stroke-linecap="round" stroke-linejoin="round"/>
<path d="M434.141 336.478C434.141 336.478 434.141 332.431 436.748 330.827L434.141 336.478Z" fill="white"/>
<path d="M434.141 336.478C434.141 336.478 434.141 332.431 436.748 330.827" stroke="#263238" stroke-linecap="round" stroke-linejoin="round"/>
<path d="M271.681 190.87H160.23V213.9H271.681V190.87Z" fill="#999999" stroke="#263238" stroke-linecap="round" stroke-linejoin="round"/>
<path d="M271.681 220.804H160.23V243.833H271.681V220.804Z" fill="#999999" stroke="#263238" stroke-linecap="round" stroke-linejoin="round"/>
<path d="M271.681 250.737H160.23V273.767H271.681V250.737Z" fill="#999999" stroke="#263238" stroke-linecap="round" stroke-linejoin="round"/>
<path d="M271.681 280.671H160.23V303.7H271.681V280.671Z" fill="#999999" stroke="#263238" stroke-linecap="round" stroke-linejoin="round"/>
<path d="M271.681 310.604H160.23V333.634H271.681V310.604Z" fill="#999999" stroke="#263238" stroke-linecap="round" stroke-linejoin="round"/>
<path d="M272.634 188.277H183.322C181.952 188.277 180.841 189.387 180.841 190.757V213.988C180.841 215.358 181.952 216.468 183.322 216.468H272.634C274.004 216.468 275.115 215.358 275.115 213.988V190.757C275.115 189.387 274.004 188.277 272.634 188.277Z" fill="#BFBFBF" stroke="#263238" stroke-linecap="round" stroke-linejoin="round"/>
<path d="M272.634 218.21H183.322C181.952 218.21 180.841 219.321 180.841 220.691V243.921C180.841 245.291 181.952 246.402 183.322 246.402H272.634C274.004 246.402 275.115 245.291 275.115 243.921V220.691C275.115 219.321 274.004 218.21 272.634 218.21Z" fill="#BFBFBF" stroke="#263238" stroke-linecap="round" stroke-linejoin="round"/>
<path d="M272.634 248.156H183.322C181.952 248.156 180.841 249.267 180.841 250.637V273.867C180.841 275.237 181.952 276.348 183.322 276.348H272.634C274.004 276.348 275.115 275.237 275.115 273.867V250.637C275.115 249.267 274.004 248.156 272.634 248.156Z" fill="#BFBFBF" stroke="#263238" stroke-linecap="round" stroke-linejoin="round"/>
<path d="M272.634 278.089H183.322C181.952 278.089 180.841 279.2 180.841 280.57V303.8C180.841 305.171 181.952 306.281 183.322 306.281H272.634C274.004 306.281 275.115 305.171 275.115 303.8V280.57C275.115 279.2 274.004 278.089 272.634 278.089Z" fill="#BFBFBF" stroke="#263238" stroke-linecap="round" stroke-linejoin="round"/>
<path d="M272.634 308.023H183.322C181.952 308.023 180.841 309.134 180.841 310.504V333.734C180.841 335.104 181.952 336.215 183.322 336.215H272.634C274.004 336.215 275.115 335.104 275.115 333.734V310.504C275.115 309.134 274.004 308.023 272.634 308.023Z" fill="#BFBFBF" stroke="#263238" stroke-linecap="round" stroke-linejoin="round"/>
<path d="M283.998 206.795C283.998 206.795 277.533 203.901 277.733 199.278C277.682 198.097 277.383 196.94 276.856 195.882C276.856 195.882 270.591 194.391 271.468 191.898L280.139 192.812C282.99 194.553 285.174 197.2 286.341 200.33" fill="white"/>
<path d="M283.998 206.795C283.998 206.795 277.533 203.901 277.733 199.278C277.682 198.097 277.383 196.94 276.856 195.882C276.856 195.882 270.591 194.391 271.468 191.898L280.139 192.812C282.99 194.553 285.174 197.2 286.341 200.33" stroke="#263238" stroke-linecap="round" stroke-linejoin="round"/>
<path d="M172.86 187.725H41.4482V517.757H172.86V187.725Z" fill="#757575" stroke="#263238" stroke-linecap="round" stroke-linejoin="round"/>
<path d="M127.452 188.289H38.1404C36.7702 188.289 35.6595 189.4 35.6595 190.77V214C35.6595 215.37 36.7702 216.481 38.1404 216.481H127.452C128.822 216.481 129.933 215.37 129.933 214V190.77C129.933 189.4 128.822 188.289 127.452 188.289Z" fill="#999999" stroke="#263238" stroke-linecap="round" stroke-linejoin="round"/>
<path d="M176.155 188.289H86.8433C85.4731 188.289 84.3624 189.4 84.3624 190.77V214C84.3624 215.37 85.4731 216.481 86.8433 216.481H176.155C177.525 216.481 178.636 215.37 178.636 214V190.77C178.636 189.4 177.525 188.289 176.155 188.289Z" fill="#BFBFBF" stroke="#263238" stroke-linecap="round" stroke-linejoin="round"/>
<path d="M86.8558 212.271V192.474C86.8558 192.022 87.0353 191.589 87.3549 191.269C87.6745 190.95 88.1079 190.77 88.5598 190.77H174.426C174.651 190.768 174.874 190.811 175.082 190.896C175.29 190.981 175.479 191.106 175.639 191.265C175.798 191.423 175.925 191.611 176.011 191.819C176.098 192.027 176.142 192.249 176.142 192.474V212.246C176.142 212.698 175.963 213.131 175.643 213.451C175.324 213.77 174.89 213.95 174.438 213.95H88.5598C88.1122 213.95 87.6825 213.774 87.3637 213.46C87.0448 213.146 86.8624 212.719 86.8558 212.271Z" fill="#263238"/>
<path d="M141.159 204.841H94.0729C93.1595 204.841 92.419 205.581 92.419 206.495V211.281C92.419 212.195 93.1595 212.935 94.0729 212.935H141.159C142.073 212.935 142.813 212.195 142.813 211.281V206.495C142.813 205.581 142.073 204.841 141.159 204.841Z" fill="#219EBC" stroke="#263238" stroke-linecap="round" stroke-linejoin="round"/>
<path d="M151.02 195.92H103.934C103.02 195.92 102.28 196.66 102.28 197.574V202.36C102.28 203.273 103.02 204.014 103.934 204.014H151.02C151.934 204.014 152.674 203.273 152.674 202.36V197.574C152.674 196.66 151.934 195.92 151.02 195.92Z" fill="#219EBC" stroke="#263238" stroke-linecap="round" stroke-linejoin="round"/>
<path d="M127.452 337.969H38.1404C36.7702 337.969 35.6595 339.08 35.6595 340.45V363.68C35.6595 365.05 36.7702 366.161 38.1404 366.161H127.452C128.822 366.161 129.933 365.05 129.933 363.68V340.45C129.933 339.08 128.822 337.969 127.452 337.969Z" fill="#999999" stroke="#263238" stroke-linecap="round" stroke-linejoin="round"/>
<path d="M176.155 337.969H86.8433C85.4731 337.969 84.3624 339.08 84.3624 340.45V363.68C84.3624 365.05 85.4731 366.161 86.8433 366.161H176.155C177.525 366.161 178.636 365.05 178.636 363.68V340.45C178.636 339.08 177.525 337.969 176.155 337.969Z" fill="#BFBFBF" stroke="#263238" stroke-linecap="round" stroke-linejoin="round"/>
<path d="M152.674 349.822H96.7166V354.295H152.674V349.822Z" fill="#757575" stroke="#263238" stroke-linecap="round" stroke-linejoin="round"/>
<path d="M162.498 352.065C162.498 352.513 162.365 352.952 162.115 353.325C161.866 353.698 161.512 353.988 161.098 354.16C160.683 354.332 160.227 354.377 159.787 354.289C159.347 354.202 158.943 353.986 158.626 353.668C158.309 353.351 158.093 352.947 158.005 352.507C157.918 352.067 157.963 351.611 158.134 351.197C158.306 350.782 158.597 350.428 158.97 350.179C159.343 349.93 159.781 349.797 160.23 349.797C160.831 349.797 161.408 350.036 161.833 350.461C162.259 350.886 162.498 351.463 162.498 352.065Z" fill="#219EBC" stroke="#263238" stroke-linecap="round" stroke-linejoin="round"/>
<path d="M170.567 352.065C170.567 352.513 170.434 352.952 170.184 353.325C169.935 353.698 169.581 353.988 169.167 354.16C168.752 354.332 168.296 354.377 167.856 354.289C167.416 354.202 167.012 353.986 166.695 353.668C166.378 353.351 166.162 352.947 166.075 352.507C165.987 352.067 166.032 351.611 166.204 351.197C166.375 350.782 166.666 350.428 167.039 350.179C167.412 349.93 167.85 349.797 168.299 349.797C168.9 349.797 169.477 350.036 169.902 350.461C170.328 350.886 170.567 351.463 170.567 352.065Z" fill="#757575" stroke="#263238" stroke-linecap="round" stroke-linejoin="round"/>
<path d="M131.499 351.313H98.759V352.804H131.499V351.313Z" fill="#219EBC"/>
<path d="M127.452 367.902H38.1404C36.7702 367.902 35.6595 369.013 35.6595 370.383V393.613C35.6595 394.983 36.7702 396.094 38.1404 396.094H127.452C128.822 396.094 129.933 394.983 129.933 393.613V370.383C129.933 369.013 128.822 367.902 127.452 367.902Z" fill="#999999" stroke="#263238" stroke-linecap="round" stroke-linejoin="round"/>
<path d="M176.155 367.902H86.8433C85.4731 367.902 84.3624 369.013 84.3624 370.383V393.613C84.3624 394.983 85.4731 396.094 86.8433 396.094H176.155C177.525 396.094 178.636 394.983 178.636 393.613V370.383C178.636 369.013 177.525 367.902 176.155 367.902Z" fill="#BFBFBF" stroke="#263238" stroke-linecap="round" stroke-linejoin="round"/>
<path d="M152.674 379.755H96.7166V384.228H152.674V379.755Z" fill="#757575" stroke="#263238" stroke-linecap="round" stroke-linejoin="round"/>
<path d="M160.23 384.266C161.482 384.266 162.498 383.251 162.498 381.998C162.498 380.746 161.482 379.73 160.23 379.73C158.977 379.73 157.962 380.746 157.962 381.998C157.962 383.251 158.977 384.266 160.23 384.266Z" fill="#219EBC" stroke="#263238" stroke-linecap="round" stroke-linejoin="round"/>
<path d="M170.567 382.011C170.567 382.459 170.434 382.898 170.184 383.271C169.935 383.644 169.581 383.934 169.167 384.106C168.752 384.278 168.296 384.322 167.856 384.235C167.416 384.147 167.012 383.932 166.695 383.614C166.378 383.297 166.162 382.893 166.075 382.453C165.987 382.013 166.032 381.557 166.204 381.143C166.375 380.728 166.666 380.374 167.039 380.125C167.412 379.876 167.85 379.743 168.299 379.743C168.597 379.741 168.893 379.799 169.169 379.912C169.445 380.025 169.695 380.192 169.906 380.403C170.117 380.614 170.284 380.865 170.397 381.141C170.511 381.417 170.568 381.712 170.567 382.011Z" fill="#757575" stroke="#263238" stroke-linecap="round" stroke-linejoin="round"/>
<path d="M131.499 381.259H98.759V382.737H131.499V381.259Z" fill="#219EBC"/>
<path d="M127.452 397.836H38.1404C36.7702 397.836 35.6595 398.946 35.6595 400.317V423.547C35.6595 424.917 36.7702 426.028 38.1404 426.028H127.452C128.822 426.028 129.933 424.917 129.933 423.547V400.317C129.933 398.946 128.822 397.836 127.452 397.836Z" fill="#999999" stroke="#263238" stroke-linecap="round" stroke-linejoin="round"/>
<path d="M176.155 397.836H86.8433C85.4731 397.836 84.3624 398.946 84.3624 400.317V423.547C84.3624 424.917 85.4731 426.028 86.8433 426.028H176.155C177.525 426.028 178.636 424.917 178.636 423.547V400.317C178.636 398.946 177.525 397.836 176.155 397.836Z" fill="#BFBFBF" stroke="#263238" stroke-linecap="round" stroke-linejoin="round"/>
<path d="M152.674 409.689H96.7166V414.162H152.674V409.689Z" fill="#757575" stroke="#263238" stroke-linecap="round" stroke-linejoin="round"/>
<path d="M160.23 414.2C161.482 414.2 162.498 413.184 162.498 411.932C162.498 410.679 161.482 409.664 160.23 409.664C158.977 409.664 157.962 410.679 157.962 411.932C157.962 413.184 158.977 414.2 160.23 414.2Z" fill="#219EBC" stroke="#263238" stroke-linecap="round" stroke-linejoin="round"/>
<path d="M170.567 411.932C170.569 412.381 170.438 412.82 170.191 413.195C169.943 413.57 169.59 413.862 169.175 414.036C168.761 414.209 168.305 414.256 167.864 414.17C167.423 414.084 167.018 413.869 166.7 413.552C166.381 413.236 166.164 412.831 166.075 412.391C165.987 411.951 166.031 411.494 166.202 411.079C166.374 410.664 166.664 410.309 167.038 410.059C167.411 409.81 167.85 409.676 168.299 409.676C168.898 409.676 169.473 409.913 169.898 410.336C170.323 410.759 170.563 411.332 170.567 411.932Z" fill="#757575" stroke="#263238" stroke-linecap="round" stroke-linejoin="round"/>
<path d="M131.499 411.192H98.759V412.671H131.499V411.192Z" fill="#219EBC"/>
<path d="M127.452 427.769H38.1404C36.7702 427.769 35.6595 428.88 35.6595 430.25V453.48C35.6595 454.85 36.7702 455.961 38.1404 455.961H127.452C128.822 455.961 129.933 454.85 129.933 453.48V430.25C129.933 428.88 128.822 427.769 127.452 427.769Z" fill="#999999" stroke="#263238" stroke-linecap="round" stroke-linejoin="round"/>
<path d="M176.155 427.769H86.8433C85.4731 427.769 84.3624 428.88 84.3624 430.25V453.48C84.3624 454.85 85.4731 455.961 86.8433 455.961H176.155C177.525 455.961 178.636 454.85 178.636 453.48V430.25C178.636 428.88 177.525 427.769 176.155 427.769Z" fill="#BFBFBF" stroke="#263238" stroke-linecap="round" stroke-linejoin="round"/>
<path d="M152.674 439.622H96.7166V444.095H152.674V439.622Z" fill="#757575" stroke="#263238" stroke-linecap="round" stroke-linejoin="round"/>
<path d="M162.498 441.865C162.5 442.314 162.369 442.754 162.121 443.128C161.874 443.503 161.52 443.796 161.106 443.969C160.692 444.143 160.236 444.19 159.795 444.103C159.354 444.017 158.949 443.802 158.631 443.486C158.312 443.169 158.095 442.765 158.006 442.325C157.918 441.884 157.962 441.428 158.133 441.013C158.305 440.598 158.595 440.243 158.968 439.993C159.342 439.743 159.781 439.61 160.23 439.61C160.829 439.61 161.404 439.847 161.829 440.27C162.254 440.692 162.494 441.266 162.498 441.865Z" fill="#219EBC" stroke="#263238" stroke-linecap="round" stroke-linejoin="round"/>
<path d="M170.567 441.865C170.569 442.314 170.438 442.754 170.191 443.128C169.943 443.503 169.59 443.796 169.175 443.969C168.761 444.143 168.305 444.19 167.864 444.103C167.423 444.017 167.018 443.802 166.7 443.486C166.381 443.169 166.164 442.765 166.075 442.325C165.987 441.884 166.031 441.428 166.202 441.013C166.374 440.598 166.664 440.243 167.038 439.993C167.411 439.743 167.85 439.61 168.299 439.61C168.898 439.61 169.473 439.847 169.898 440.27C170.323 440.692 170.563 441.266 170.567 441.865Z" fill="#757575" stroke="#263238" stroke-linecap="round" stroke-linejoin="round"/>
<path d="M131.499 441.126H98.759V442.617H131.499V441.126Z" fill="#219EBC"/>
<path d="M127.452 457.703H38.1404C36.7702 457.703 35.6595 458.813 35.6595 460.184V483.414C35.6595 484.784 36.7702 485.894 38.1404 485.894H127.452C128.822 485.894 129.933 484.784 129.933 483.414V460.184C129.933 458.813 128.822 457.703 127.452 457.703Z" fill="#999999" stroke="#263238" stroke-linecap="round" stroke-linejoin="round"/>
<path d="M176.155 457.703H86.8433C85.4731 457.703 84.3624 458.813 84.3624 460.184V483.414C84.3624 484.784 85.4731 485.894 86.8433 485.894H176.155C177.525 485.894 178.636 484.784 178.636 483.414V460.184C178.636 458.813 177.525 457.703 176.155 457.703Z" fill="#BFBFBF" stroke="#263238" stroke-linecap="round" stroke-linejoin="round"/>
<path d="M152.674 469.568H96.7166V474.041H152.674V469.568Z" fill="#757575" stroke="#263238" stroke-linecap="round" stroke-linejoin="round"/>
<path d="M160.23 474.066C161.482 474.066 162.498 473.051 162.498 471.799C162.498 470.546 161.482 469.531 160.23 469.531C158.977 469.531 157.962 470.546 157.962 471.799C157.962 473.051 158.977 474.066 160.23 474.066Z" fill="#219EBC" stroke="#263238" stroke-linecap="round" stroke-linejoin="round"/>
<path d="M170.567 471.799C170.569 472.248 170.438 472.687 170.191 473.062C169.943 473.437 169.59 473.729 169.175 473.903C168.761 474.076 168.305 474.123 167.864 474.037C167.423 473.951 167.018 473.736 166.7 473.419C166.381 473.103 166.164 472.698 166.075 472.258C165.987 471.818 166.031 471.361 166.202 470.946C166.374 470.531 166.664 470.176 167.038 469.926C167.411 469.677 167.85 469.543 168.299 469.543C168.898 469.543 169.473 469.78 169.898 470.203C170.323 470.626 170.563 471.199 170.567 471.799Z" fill="#757575" stroke="#263238" stroke-linecap="round" stroke-linejoin="round"/>
<path d="M131.499 471.059H98.759V472.538H131.499V471.059Z" fill="#219EBC"/>
<path d="M127.452 487.636H38.1404C36.7702 487.636 35.6595 488.747 35.6595 490.117V513.347C35.6595 514.717 36.7702 515.828 38.1404 515.828H127.452C128.822 515.828 129.933 514.717 129.933 513.347V490.117C129.933 488.747 128.822 487.636 127.452 487.636Z" fill="#999999" stroke="#263238" stroke-linecap="round" stroke-linejoin="round"/>
<path d="M176.155 487.636H86.8433C85.4731 487.636 84.3624 488.747 84.3624 490.117V513.347C84.3624 514.717 85.4731 515.828 86.8433 515.828H176.155C177.525 515.828 178.636 514.717 178.636 513.347V490.117C178.636 488.747 177.525 487.636 176.155 487.636Z" fill="#BFBFBF" stroke="#263238" stroke-linecap="round" stroke-linejoin="round"/>
<path d="M152.674 499.502H96.7166V503.975H152.674V499.502Z" fill="#757575" stroke="#263238" stroke-linecap="round" stroke-linejoin="round"/>
<path d="M160.23 504.012C161.482 504.012 162.498 502.997 162.498 501.744C162.498 500.492 161.482 499.477 160.23 499.477C158.977 499.477 157.962 500.492 157.962 501.744C157.962 502.997 158.977 504.012 160.23 504.012Z" fill="#219EBC" stroke="#263238" stroke-linecap="round" stroke-linejoin="round"/>
<path d="M170.567 501.744C170.567 502.193 170.434 502.632 170.184 503.004C169.935 503.377 169.581 503.668 169.167 503.84C168.752 504.011 168.296 504.056 167.856 503.969C167.416 503.881 167.012 503.665 166.695 503.348C166.378 503.031 166.162 502.627 166.075 502.187C165.987 501.747 166.032 501.291 166.204 500.877C166.375 500.462 166.666 500.108 167.039 499.859C167.412 499.61 167.85 499.477 168.299 499.477C168.9 499.477 169.477 499.716 169.902 500.141C170.328 500.566 170.567 501.143 170.567 501.744Z" fill="#757575" stroke="#263238" stroke-linecap="round" stroke-linejoin="round"/>
<path d="M131.499 500.993H98.759V502.471H131.499V500.993Z" fill="#219EBC"/>
<path d="M127.452 308.023H38.1404C36.7702 308.023 35.6595 309.134 35.6595 310.504V333.734C35.6595 335.104 36.7702 336.215 38.1404 336.215H127.452C128.822 336.215 129.933 335.104 129.933 333.734V310.504C129.933 309.134 128.822 308.023 127.452 308.023Z" fill="#999999" stroke="#263238" stroke-linecap="round" stroke-linejoin="round"/>
<path d="M176.155 308.023H86.8433C85.4731 308.023 84.3624 309.134 84.3624 310.504V333.734C84.3624 335.104 85.4731 336.215 86.8433 336.215H176.155C177.525 336.215 178.636 335.104 178.636 333.734V310.504C178.636 309.134 177.525 308.023 176.155 308.023Z" fill="#BFBFBF" stroke="#263238" stroke-linecap="round" stroke-linejoin="round"/>
<path d="M86.8558 332.005V312.22C86.8558 311.768 87.0353 311.335 87.3549 311.015C87.6745 310.696 88.1079 310.516 88.5598 310.516H174.426C174.881 310.516 175.318 310.697 175.64 311.019C175.962 311.341 176.142 311.778 176.142 312.233V332.005C176.142 332.457 175.963 332.89 175.643 333.21C175.324 333.529 174.89 333.709 174.438 333.709H88.5598C88.1079 333.709 87.6745 333.529 87.3549 333.21C87.0353 332.89 86.8558 332.457 86.8558 332.005Z" fill="#263238"/>
<path d="M141.159 324.575H94.0729C93.1595 324.575 92.419 325.315 92.419 326.229V331.015C92.419 331.928 93.1595 332.669 94.0729 332.669H141.159C142.073 332.669 142.813 331.928 142.813 331.015V326.229C142.813 325.315 142.073 324.575 141.159 324.575Z" fill="#219EBC" stroke="#263238" stroke-linecap="round" stroke-linejoin="round"/>
<path d="M168.988 324.575H146.961C146.047 324.575 145.307 325.315 145.307 326.229V331.015C145.307 331.928 146.047 332.669 146.961 332.669H168.988C169.901 332.669 170.642 331.928 170.642 331.015V326.229C170.642 325.315 169.901 324.575 168.988 324.575Z" fill="#219EBC" stroke="#263238" stroke-linecap="round" stroke-linejoin="round"/>
<path d="M121.525 316.418H99.4983C98.5848 316.418 97.8444 317.158 97.8444 318.072V322.858C97.8444 323.771 98.5848 324.512 99.4983 324.512H121.525C122.439 324.512 123.179 323.771 123.179 322.858V318.072C123.179 317.158 122.439 316.418 121.525 316.418Z" fill="#219EBC" stroke="#263238" stroke-linecap="round" stroke-linejoin="round"/>
<path d="M127.452 278.089H38.1404C36.7702 278.089 35.6595 279.2 35.6595 280.57V303.8C35.6595 305.171 36.7702 306.281 38.1404 306.281H127.452C128.822 306.281 129.933 305.171 129.933 303.8V280.57C129.933 279.2 128.822 278.089 127.452 278.089Z" fill="#999999" stroke="#263238" stroke-linecap="round" stroke-linejoin="round"/>
<path d="M176.155 278.089H86.8433C85.4731 278.089 84.3624 279.2 84.3624 280.57V303.8C84.3624 305.171 85.4731 306.281 86.8433 306.281H176.155C177.525 306.281 178.636 305.171 178.636 303.8V280.57C178.636 279.2 177.525 278.089 176.155 278.089Z" fill="#BFBFBF" stroke="#263238" stroke-linecap="round" stroke-linejoin="round"/>
<path d="M86.8558 302.071V282.287C86.8558 281.835 87.0353 281.402 87.3549 281.082C87.6745 280.762 88.1079 280.583 88.5598 280.583H174.426C174.881 280.583 175.318 280.764 175.64 281.086C175.962 281.408 176.142 281.844 176.142 282.299V302.059C176.144 302.284 176.101 302.507 176.016 302.715C175.931 302.923 175.806 303.112 175.648 303.272C175.489 303.431 175.301 303.558 175.093 303.644C174.886 303.731 174.663 303.775 174.438 303.775H88.5598C88.1079 303.775 87.6745 303.596 87.3549 303.276C87.0353 302.957 86.8558 302.523 86.8558 302.071Z" fill="#263238"/>
<path d="M141.924 294.641H119.897C118.983 294.641 118.243 295.382 118.243 296.295V301.081C118.243 301.995 118.983 302.735 119.897 302.735H141.924C142.837 302.735 143.578 301.995 143.578 301.081V296.295C143.578 295.382 142.837 294.641 141.924 294.641Z" fill="#219EBC" stroke="#263238" stroke-linecap="round" stroke-linejoin="round"/>
<path d="M168.988 294.641H146.961C146.047 294.641 145.307 295.382 145.307 296.295V301.081C145.307 301.995 146.047 302.735 146.961 302.735H168.988C169.901 302.735 170.642 301.995 170.642 301.081V296.295C170.642 295.382 169.901 294.641 168.988 294.641Z" fill="#219EBC" stroke="#263238" stroke-linecap="round" stroke-linejoin="round"/>
<path d="M115.336 294.641H93.3086C92.3952 294.641 91.6547 295.382 91.6547 296.295V301.081C91.6547 301.995 92.3952 302.735 93.3086 302.735H115.336C116.249 302.735 116.99 301.995 116.99 301.081V296.295C116.99 295.382 116.249 294.641 115.336 294.641Z" fill="#219EBC" stroke="#263238" stroke-linecap="round" stroke-linejoin="round"/>
<path d="M135.158 285.971H113.131C112.217 285.971 111.477 286.711 111.477 287.625V292.411C111.477 293.324 112.217 294.065 113.131 294.065H135.158C136.071 294.065 136.812 293.324 136.812 292.411V287.625C136.812 286.711 136.071 285.971 135.158 285.971Z" fill="#219EBC" stroke="#263238" stroke-linecap="round" stroke-linejoin="round"/>
<path d="M127.452 248.156H38.1404C36.7702 248.156 35.6595 249.267 35.6595 250.637V273.867C35.6595 275.237 36.7702 276.348 38.1404 276.348H127.452C128.822 276.348 129.933 275.237 129.933 273.867V250.637C129.933 249.267 128.822 248.156 127.452 248.156Z" fill="#999999" stroke="#263238" stroke-linecap="round" stroke-linejoin="round"/>
<path d="M176.155 248.156H86.8433C85.4731 248.156 84.3624 249.267 84.3624 250.637V273.867C84.3624 275.237 85.4731 276.348 86.8433 276.348H176.155C177.525 276.348 178.636 275.237 178.636 273.867V250.637C178.636 249.267 177.525 248.156 176.155 248.156Z" fill="#BFBFBF" stroke="#263238" stroke-linecap="round" stroke-linejoin="round"/>
<path d="M86.8558 272.138V252.353C86.8542 252.129 86.897 251.906 86.9819 251.697C87.0668 251.489 87.1921 251.3 87.3505 251.14C87.5089 250.981 87.6973 250.854 87.9049 250.768C88.1124 250.681 88.335 250.637 88.5599 250.637H174.426C174.881 250.637 175.318 250.818 175.64 251.14C175.962 251.462 176.142 251.898 176.142 252.353V272.113C176.144 272.338 176.101 272.561 176.016 272.769C175.931 272.977 175.806 273.166 175.648 273.326C175.489 273.485 175.301 273.612 175.093 273.698C174.886 273.785 174.663 273.829 174.438 273.829H88.5599C88.1101 273.829 87.6786 273.652 87.3593 273.335C87.0401 273.018 86.8591 272.588 86.8558 272.138Z" fill="#263238"/>
<path d="M157.448 264.708H110.361C109.448 264.708 108.708 265.448 108.708 266.362V271.148C108.708 272.061 109.448 272.802 110.361 272.802H157.448C158.362 272.802 159.102 272.061 159.102 271.148V266.362C159.102 265.448 158.362 264.708 157.448 264.708Z" fill="#219EBC" stroke="#263238" stroke-linecap="round" stroke-linejoin="round"/>
<path d="M151.083 263.881H103.934C103.495 263.881 103.074 263.707 102.764 263.396C102.454 263.086 102.28 262.665 102.28 262.227V262.452C102.28 262.014 102.454 261.593 102.764 261.283C103.074 260.973 103.495 260.798 103.934 260.798H151.083C151.519 260.802 151.937 260.977 152.244 261.287C152.552 261.597 152.724 262.016 152.724 262.452V262.227C152.724 262.663 152.552 263.082 152.244 263.392C151.937 263.702 151.519 263.877 151.083 263.881Z" fill="#219EBC" stroke="#263238" stroke-linecap="round" stroke-linejoin="round"/>
<path d="M127.452 218.223H38.1404C36.7702 218.223 35.6595 219.333 35.6595 220.703V243.934C35.6595 245.304 36.7702 246.414 38.1404 246.414H127.452C128.822 246.414 129.933 245.304 129.933 243.934V220.703C129.933 219.333 128.822 218.223 127.452 218.223Z" fill="#999999" stroke="#263238" stroke-linecap="round" stroke-linejoin="round"/>
<path d="M176.155 218.223H86.8433C85.4731 218.223 84.3624 219.333 84.3624 220.703V243.934C84.3624 245.304 85.4731 246.414 86.8433 246.414H176.155C177.525 246.414 178.636 245.304 178.636 243.934V220.703C178.636 219.333 177.525 218.223 176.155 218.223Z" fill="#BFBFBF" stroke="#263238" stroke-linecap="round" stroke-linejoin="round"/>
<path d="M86.8558 242.204V222.42C86.8542 222.195 86.897 221.972 86.9819 221.764C87.0668 221.556 87.1921 221.367 87.3505 221.207C87.5089 221.047 87.6973 220.921 87.9049 220.834C88.1124 220.748 88.335 220.703 88.5599 220.703H174.426C174.651 220.702 174.874 220.745 175.082 220.83C175.29 220.914 175.479 221.04 175.639 221.198C175.798 221.357 175.925 221.545 176.012 221.753C176.098 221.96 176.142 222.183 176.142 222.408V242.179C176.142 242.631 175.963 243.065 175.643 243.384C175.324 243.704 174.89 243.883 174.438 243.883H88.5599C88.1122 243.883 87.6826 243.707 87.3637 243.393C87.0449 243.079 86.8624 242.652 86.8558 242.204Z" fill="#263238"/>
<path d="M166.219 234.774H119.132C118.219 234.774 117.478 235.515 117.478 236.428V241.215C117.478 242.128 118.219 242.868 119.132 242.868H166.219C167.132 242.868 167.873 242.128 167.873 241.215V236.428C167.873 235.515 167.132 234.774 166.219 234.774Z" fill="#219EBC" stroke="#263238" stroke-linecap="round" stroke-linejoin="round"/>
<path d="M151.02 225.853H128.993C128.08 225.853 127.339 226.594 127.339 227.507V232.293C127.339 233.207 128.08 233.947 128.993 233.947H151.02C151.934 233.947 152.674 233.207 152.674 232.293V227.507C152.674 226.594 151.934 225.853 151.02 225.853Z" fill="#219EBC" stroke="#263238" stroke-linecap="round" stroke-linejoin="round"/>
<path d="M41.0222 206.156V212.935" stroke="#263238" stroke-linecap="round" stroke-linejoin="round"/>
<path d="M43.1773 206.156V212.935" stroke="#263238" stroke-linecap="round" stroke-linejoin="round"/>
<path d="M45.3199 206.156V212.935" stroke="#263238" stroke-linecap="round" stroke-linejoin="round"/>
<path d="M47.475 206.156V212.935" stroke="#263238" stroke-linecap="round" stroke-linejoin="round"/>
<path d="M49.6176 206.156V212.935" stroke="#263238" stroke-linecap="round" stroke-linejoin="round"/>
<path d="M41.0222 505.616V512.395" stroke="#263238" stroke-linecap="round" stroke-linejoin="round"/>
<path d="M43.1773 505.616V512.395" stroke="#263238" stroke-linecap="round" stroke-linejoin="round"/>
<path d="M45.3199 505.616V512.395" stroke="#263238" stroke-linecap="round" stroke-linejoin="round"/>
<path d="M47.475 505.616V512.395" stroke="#263238" stroke-linecap="round" stroke-linejoin="round"/>
<path d="M49.6176 505.616V512.395" stroke="#263238" stroke-linecap="round" stroke-linejoin="round"/>
<path d="M41.0222 475.67V482.449" stroke="#263238" stroke-linecap="round" stroke-linejoin="round"/>
<path d="M43.1773 475.67V482.449" stroke="#263238" stroke-linecap="round" stroke-linejoin="round"/>
<path d="M45.3199 475.67V482.449" stroke="#263238" stroke-linecap="round" stroke-linejoin="round"/>
<path d="M47.475 475.67V482.449" stroke="#263238" stroke-linecap="round" stroke-linejoin="round"/>
<path d="M49.6176 475.67V482.449" stroke="#263238" stroke-linecap="round" stroke-linejoin="round"/>
<path d="M41.0222 445.724V452.503" stroke="#263238" stroke-linecap="round" stroke-linejoin="round"/>
<path d="M43.1773 445.724V452.503" stroke="#263238" stroke-linecap="round" stroke-linejoin="round"/>
<path d="M45.3199 445.724V452.503" stroke="#263238" stroke-linecap="round" stroke-linejoin="round"/>
<path d="M47.475 445.724V452.503" stroke="#263238" stroke-linecap="round" stroke-linejoin="round"/>
<path d="M49.6176 445.724V452.503" stroke="#263238" stroke-linecap="round" stroke-linejoin="round"/>
<path d="M41.0222 415.778V422.557" stroke="#263238" stroke-linecap="round" stroke-linejoin="round"/>
<path d="M43.1773 415.778V422.557" stroke="#263238" stroke-linecap="round" stroke-linejoin="round"/>
<path d="M45.3199 415.778V422.557" stroke="#263238" stroke-linecap="round" stroke-linejoin="round"/>
<path d="M47.475 415.778V422.557" stroke="#263238" stroke-linecap="round" stroke-linejoin="round"/>
<path d="M49.6176 415.778V422.557" stroke="#263238" stroke-linecap="round" stroke-linejoin="round"/>
<path d="M41.0222 385.832V392.611" stroke="#263238" stroke-linecap="round" stroke-linejoin="round"/>
<path d="M43.1773 385.832V392.611" stroke="#263238" stroke-linecap="round" stroke-linejoin="round"/>
<path d="M45.3199 385.832V392.611" stroke="#263238" stroke-linecap="round" stroke-linejoin="round"/>
<path d="M47.475 385.832V392.611" stroke="#263238" stroke-linecap="round" stroke-linejoin="round"/>
<path d="M49.6176 385.832V392.611" stroke="#263238" stroke-linecap="round" stroke-linejoin="round"/>
<path d="M41.0222 355.886V362.665" stroke="#263238" stroke-linecap="round" stroke-linejoin="round"/>
<path d="M43.1773 355.886V362.665" stroke="#263238" stroke-linecap="round" stroke-linejoin="round"/>
<path d="M45.3199 355.886V362.665" stroke="#263238" stroke-linecap="round" stroke-linejoin="round"/>
<path d="M47.475 355.886V362.665" stroke="#263238" stroke-linecap="round" stroke-linejoin="round"/>
<path d="M49.6176 355.886V362.665" stroke="#263238" stroke-linecap="round" stroke-linejoin="round"/>
<path d="M41.0222 325.94V332.719" stroke="#263238" stroke-linecap="round" stroke-linejoin="round"/>
<path d="M43.1773 325.94V332.719" stroke="#263238" stroke-linecap="round" stroke-linejoin="round"/>
<path d="M45.3199 325.94V332.719" stroke="#263238" stroke-linecap="round" stroke-linejoin="round"/>
<path d="M47.475 325.94V332.719" stroke="#263238" stroke-linecap="round" stroke-linejoin="round"/>
<path d="M49.6176 325.94V332.719" stroke="#263238" stroke-linecap="round" stroke-linejoin="round"/>
<path d="M41.0222 295.994V302.773" stroke="#263238" stroke-linecap="round" stroke-linejoin="round"/>
<path d="M43.1773 295.994V302.773" stroke="#263238" stroke-linecap="round" stroke-linejoin="round"/>
<path d="M45.3199 295.994V302.773" stroke="#263238" stroke-linecap="round" stroke-linejoin="round"/>
<path d="M47.475 295.994V302.773" stroke="#263238" stroke-linecap="round" stroke-linejoin="round"/>
<path d="M49.6176 295.994V302.773" stroke="#263238" stroke-linecap="round" stroke-linejoin="round"/>
<path d="M41.0222 266.048V272.827" stroke="#263238" stroke-linecap="round" stroke-linejoin="round"/>
<path d="M43.1773 266.048V272.827" stroke="#263238" stroke-linecap="round" stroke-linejoin="round"/>
<path d="M45.3199 266.048V272.827" stroke="#263238" stroke-linecap="round" stroke-linejoin="round"/>
<path d="M47.475 266.048V272.827" stroke="#263238" stroke-linecap="round" stroke-linejoin="round"/>
<path d="M49.6176 266.048V272.827" stroke="#263238" stroke-linecap="round" stroke-linejoin="round"/>
<path d="M41.0222 236.102V242.881" stroke="#263238" stroke-linecap="round" stroke-linejoin="round"/>
<path d="M43.1773 236.102V242.881" stroke="#263238" stroke-linecap="round" stroke-linejoin="round"/>
<path d="M45.3199 236.102V242.881" stroke="#263238" stroke-linecap="round" stroke-linejoin="round"/>
<path d="M47.475 236.102V242.881" stroke="#263238" stroke-linecap="round" stroke-linejoin="round"/>
<path d="M49.6176 236.102V242.881" stroke="#263238" stroke-linecap="round" stroke-linejoin="round"/>
</svg>
