<svg width="146" height="41" viewBox="0 0 146 41" fill="none" xmlns="http://www.w3.org/2000/svg">
<rect y="20.3548" width="12.3369" height="12.3369" transform="rotate(-45 0 20.3548)" fill="#FB8500"/>
<rect x="11.8879" y="31.9001" width="28.7861" height="12.3369" transform="rotate(-45 11.8879 31.9001)" fill="#219EBC"/>
<rect x="11.6313" y="8.7235" width="12.3369" height="12.3369" transform="rotate(-45 11.6313 8.7235)" fill="#219EBC"/>
<path d="M57.7113 5.339H69.1683V7.391H57.7113V5.339ZM59.9153 2.869H62.1003V9.538H59.9153V2.869ZM64.6843 2.869H66.8883V9.538H64.6843V2.869ZM58.3573 10.127H68.5793V20.501H66.4133V12.122H60.4093V20.596H58.3573V10.127ZM59.5163 13.927H67.3443V15.865H59.5163V13.927ZM59.5733 17.708H67.4013V19.703H59.5733V17.708ZM62.3473 11.115H64.3803V19.19H62.3473V11.115ZM51.8593 4.408L53.4363 3.192C57.0083 6.194 57.4643 9.557 57.4643 13.205C57.4643 15.808 57.2553 18.373 56.4003 19.532C56.0963 19.931 55.6973 20.178 55.2223 20.273C54.5193 20.463 53.7213 20.482 52.8473 20.425C52.8473 19.722 52.6383 18.886 52.2583 18.259C53.1513 18.316 53.7973 18.316 54.1773 18.278C54.4433 18.24 54.6143 18.145 54.7473 17.936C55.1463 17.423 55.2983 15.428 55.2983 13.148C55.2983 9.709 54.8043 6.935 51.8593 4.408ZM55.4313 9.785L57.1223 10.773C56.1913 12.635 54.4243 14.839 52.9043 16.112C52.5433 15.561 51.9163 14.82 51.3653 14.402C52.8853 13.433 54.5953 11.476 55.4313 9.785ZM56.2103 3.23L57.9203 4.617C56.6093 6.688 54.6903 8.55 52.7713 9.861C52.4483 9.386 51.7833 8.664 51.3083 8.265C53.2083 7.011 55.0513 5.092 56.2103 3.23ZM78.4973 5.13H80.6633V18.886L78.4973 19.114V5.13ZM79.6563 5.13H87.1803V13.452H79.6563V11.495H84.9763V7.106H79.6563V5.13ZM79.7133 8.36H85.9643V10.203H79.7133V8.36ZM81.6703 2.888H83.9313V6.194H81.6703V2.888ZM77.1673 18.487C78.8013 18.221 81.1953 17.765 83.5133 17.29L83.7033 19.285C81.6513 19.76 79.4663 20.235 77.7373 20.615L77.1673 18.487ZM83.6463 12.274C84.3493 15.295 85.8503 17.727 88.5863 18.753C88.0733 19.19 87.4083 20.102 87.1043 20.71C84.0833 19.304 82.6013 16.416 81.7843 12.597L83.6463 12.274ZM86.7243 13.547L88.3393 14.782C87.3513 15.637 86.1353 16.53 85.2233 17.1L83.8553 15.941C84.7483 15.352 85.9833 14.326 86.7243 13.547ZM70.5743 6.65H76.3503V8.74H70.5743V6.65ZM72.8163 2.869L74.9823 3.078C74.3173 7.087 73.3293 12.122 72.4933 15.561L70.6693 14.478C71.4103 11.533 72.3033 6.612 72.8163 2.869ZM71.4863 14.003L72.8353 12.407C74.6403 13.813 77.0153 15.846 78.0603 17.271L76.5973 19.114C75.5903 17.651 73.3103 15.485 71.4863 14.003ZM75.5523 6.65H75.9323L76.3123 6.612L77.6233 6.764C77.2813 14.326 75.6663 18.468 71.9803 20.729C71.6763 20.159 71.1063 19.342 70.6503 18.886C73.7663 17.271 75.2863 13.167 75.5523 7.049V6.65ZM92.0253 4.085H105.097V6.441H92.0253V4.085ZM89.8783 9.614H107.073V11.97H89.8783V9.614ZM95.4643 11.02L98.2763 11.723C97.2883 14.174 96.0343 16.891 94.9893 18.639L92.8043 17.936C93.7923 16.055 94.8943 13.205 95.4643 11.02ZM90.3153 17.442C94.0393 17.347 99.8533 17.138 105.135 16.929L105.04 19.114C99.8533 19.418 94.2293 19.703 90.4863 19.855L90.3153 17.442ZM100.651 14.25L102.874 13.205C104.603 15.105 106.351 17.651 107.187 19.456L104.831 20.729C104.109 18.943 102.304 16.207 100.651 14.25ZM109.847 4.047H125.028V6.308H109.847V4.047ZM108.821 12.103H126.13V14.402H108.821V12.103ZM110.987 7.524L113.058 6.916C113.723 8.132 114.388 9.747 114.597 10.792L112.393 11.495C112.203 10.469 111.595 8.797 110.987 7.524ZM121.817 6.859L124.249 7.486C123.565 8.93 122.786 10.488 122.159 11.476L120.164 10.887C120.753 9.785 121.456 8.113 121.817 6.859ZM116.25 4.997H118.625V20.691H116.25V4.997ZM131.127 17.727H141.615V19.931H131.127V17.727ZM130.101 12.274H142.812V20.691H140.361V14.459H132.438V20.691H130.101V12.274ZM133.825 2.717L136.428 3.572C135.193 5.928 133.578 8.474 132.286 10.127L130.234 9.31C131.507 7.581 133.008 4.845 133.825 2.717ZM138.385 6.118L140.19 4.788C142.071 6.308 144.351 8.512 145.339 10.146L143.344 11.666C142.451 10.07 140.285 7.752 138.385 6.118ZM128.087 8.246C131.925 8.151 137.815 7.923 143.04 7.695L142.926 9.899C137.663 10.184 131.963 10.412 128.22 10.564L128.087 8.246Z" fill="black"/>
<path d="M52.9823 29.648C53.2063 29.256 53.5343 28.936 53.9663 28.688C54.3983 28.44 54.8903 28.316 55.4423 28.316C56.0343 28.316 56.5663 28.456 57.0383 28.736C57.5103 29.016 57.8823 29.412 58.1543 29.924C58.4263 30.428 58.5623 31.016 58.5623 31.688C58.5623 32.352 58.4263 32.944 58.1543 33.464C57.8823 33.984 57.5063 34.388 57.0263 34.676C56.5543 34.964 56.0263 35.108 55.4423 35.108C54.8743 35.108 54.3743 34.984 53.9423 34.736C53.5183 34.488 53.1983 34.172 52.9823 33.788V35H51.8903V26.12H52.9823V29.648ZM57.4463 31.688C57.4463 31.192 57.3463 30.76 57.1463 30.392C56.9463 30.024 56.6743 29.744 56.3303 29.552C55.9943 29.36 55.6223 29.264 55.2143 29.264C54.8143 29.264 54.4423 29.364 54.0983 29.564C53.7623 29.756 53.4903 30.04 53.2823 30.416C53.0823 30.784 52.9823 31.212 52.9823 31.7C52.9823 32.196 53.0823 32.632 53.2823 33.008C53.4903 33.376 53.7623 33.66 54.0983 33.86C54.4423 34.052 54.8143 34.148 55.2143 34.148C55.6223 34.148 55.9943 34.052 56.3303 33.86C56.6743 33.66 56.9463 33.376 57.1463 33.008C57.3463 32.632 57.4463 32.192 57.4463 31.688ZM67.2237 28.424L63.2637 38.096H62.1357L63.4317 34.928L60.7797 28.424H61.9917L64.0557 33.752L66.0957 28.424H67.2237ZM81.0846 26.636V35H79.9926V31.208H75.7326V35H74.6406V26.636H75.7326V30.308H79.9926V26.636H81.0846ZM85.0732 27.356C84.8652 27.356 84.6892 27.284 84.5452 27.14C84.4012 26.996 84.3292 26.82 84.3292 26.612C84.3292 26.404 84.4012 26.228 84.5452 26.084C84.6892 25.94 84.8652 25.868 85.0732 25.868C85.2732 25.868 85.4412 25.94 85.5772 26.084C85.7212 26.228 85.7932 26.404 85.7932 26.612C85.7932 26.82 85.7212 26.996 85.5772 27.14C85.4412 27.284 85.2732 27.356 85.0732 27.356ZM85.6012 28.424V35H84.5092V28.424H85.6012ZM91.4703 33.992L93.5103 28.424H94.6743L92.0943 35H90.8223L88.2423 28.424H89.4183L91.4703 33.992ZM103.309 31.46C103.309 31.668 103.297 31.888 103.273 32.12H98.0169C98.0569 32.768 98.2769 33.276 98.6769 33.644C99.0849 34.004 99.5769 34.184 100.153 34.184C100.625 34.184 101.017 34.076 101.329 33.86C101.649 33.636 101.873 33.34 102.001 32.972H103.177C103.001 33.604 102.649 34.12 102.121 34.52C101.593 34.912 100.937 35.108 100.153 35.108C99.5289 35.108 98.9689 34.968 98.4729 34.688C97.9849 34.408 97.6009 34.012 97.3209 33.5C97.0409 32.98 96.9009 32.38 96.9009 31.7C96.9009 31.02 97.0369 30.424 97.3089 29.912C97.5809 29.4 97.9609 29.008 98.4489 28.736C98.9449 28.456 99.5129 28.316 100.153 28.316C100.777 28.316 101.329 28.452 101.809 28.724C102.289 28.996 102.657 29.372 102.913 29.852C103.177 30.324 103.309 30.86 103.309 31.46ZM102.181 31.232C102.181 30.816 102.089 30.46 101.905 30.164C101.721 29.86 101.469 29.632 101.149 29.48C100.837 29.32 100.489 29.24 100.105 29.24C99.5529 29.24 99.0809 29.416 98.6889 29.768C98.3049 30.12 98.0849 30.608 98.0289 31.232H102.181ZM107.402 29.492C107.594 29.116 107.866 28.824 108.218 28.616C108.578 28.408 109.014 28.304 109.526 28.304V29.432H109.238C108.014 29.432 107.402 30.096 107.402 31.424V35H106.31V28.424H107.402V29.492ZM116.698 30.812C116.698 29.996 116.882 29.264 117.25 28.616C117.618 27.96 118.118 27.448 118.75 27.08C119.39 26.712 120.098 26.528 120.874 26.528C121.786 26.528 122.582 26.748 123.262 27.188C123.942 27.628 124.438 28.252 124.75 29.06H123.442C123.21 28.556 122.874 28.168 122.434 27.896C122.002 27.624 121.482 27.488 120.874 27.488C120.29 27.488 119.766 27.624 119.302 27.896C118.838 28.168 118.474 28.556 118.21 29.06C117.946 29.556 117.814 30.14 117.814 30.812C117.814 31.476 117.946 32.06 118.21 32.564C118.474 33.06 118.838 33.444 119.302 33.716C119.766 33.988 120.29 34.124 120.874 34.124C121.482 34.124 122.002 33.992 122.434 33.728C122.874 33.456 123.21 33.068 123.442 32.564H124.75C124.438 33.364 123.942 33.984 123.262 34.424C122.582 34.856 121.786 35.072 120.874 35.072C120.098 35.072 119.39 34.892 118.75 34.532C118.118 34.164 117.618 33.656 117.25 33.008C116.882 32.36 116.698 31.628 116.698 30.812ZM132.124 30.692C132.428 30.74 132.704 30.864 132.952 31.064C133.208 31.264 133.408 31.512 133.552 31.808C133.704 32.104 133.78 32.42 133.78 32.756C133.78 33.18 133.672 33.564 133.456 33.908C133.24 34.244 132.924 34.512 132.508 34.712C132.1 34.904 131.616 35 131.056 35H127.936V26.636H130.936C131.504 26.636 131.988 26.732 132.388 26.924C132.788 27.108 133.088 27.36 133.288 27.68C133.488 28 133.588 28.36 133.588 28.76C133.588 29.256 133.452 29.668 133.18 29.996C132.916 30.316 132.564 30.548 132.124 30.692ZM129.028 30.248H130.864C131.376 30.248 131.772 30.128 132.052 29.888C132.332 29.648 132.472 29.316 132.472 28.892C132.472 28.468 132.332 28.136 132.052 27.896C131.772 27.656 131.368 27.536 130.84 27.536H129.028V30.248ZM130.96 34.1C131.504 34.1 131.928 33.972 132.232 33.716C132.536 33.46 132.688 33.104 132.688 32.648C132.688 32.184 132.528 31.82 132.208 31.556C131.888 31.284 131.46 31.148 130.924 31.148H129.028V34.1H130.96ZM142.003 26.636V27.524H139.723V35H138.631V27.524H136.339V26.636H142.003Z" fill="black"/>
</svg>
