<svg width="35" height="35" viewBox="0 0 35 35" fill="none" xmlns="http://www.w3.org/2000/svg">
<path d="M35 17.5C35 7.8575 27.1425 0 17.5 0C7.8575 0 0 7.8575 0 17.5C0 22.575 2.1875 27.1425 5.6525 30.345C5.6525 30.3625 5.6525 30.3625 5.635 30.38C5.81 30.555 6.02 30.695 6.195 30.8525C6.3 30.94 6.3875 31.0275 6.4925 31.0975C6.8075 31.36 7.1575 31.605 7.49 31.85C7.6125 31.9375 7.7175 32.0075 7.84 32.095C8.1725 32.3225 8.5225 32.5325 8.89 32.725C9.0125 32.795 9.1525 32.8825 9.275 32.9525C9.625 33.145 9.9925 33.32 10.3775 33.4775C10.5175 33.5475 10.6575 33.6175 10.7975 33.67C11.1825 33.8275 11.5675 33.9675 11.9525 34.09C12.0925 34.1425 12.2325 34.195 12.3725 34.23C12.7925 34.3525 13.2125 34.4575 13.6325 34.5625C13.755 34.5975 13.8775 34.6325 14.0175 34.65C14.5075 34.755 14.9975 34.825 15.505 34.8775C15.575 34.8775 15.645 34.895 15.715 34.9125C16.31 34.965 16.905 35 17.5 35C18.095 35 18.69 34.965 19.2675 34.9125C19.3375 34.9125 19.4075 34.895 19.4775 34.8775C19.985 34.825 20.475 34.755 20.965 34.65C21.0875 34.6325 21.21 34.58 21.35 34.5625C21.77 34.4575 22.2075 34.37 22.61 34.23C22.75 34.1775 22.89 34.125 23.03 34.09C23.415 33.95 23.8175 33.8275 24.185 33.67C24.325 33.6175 24.465 33.5475 24.605 33.4775C24.9725 33.32 25.34 33.145 25.7075 32.9525C25.8475 32.8825 25.97 32.795 26.0925 32.725C26.4425 32.515 26.7925 32.3225 27.1425 32.095C27.265 32.025 27.37 31.9375 27.4925 31.85C27.8425 31.605 28.175 31.36 28.49 31.0975C28.595 31.01 28.6825 30.9225 28.7875 30.8525C28.98 30.695 29.1725 30.5375 29.3475 30.38C29.3475 30.3625 29.3475 30.3625 29.33 30.345C32.8125 27.1425 35 22.575 35 17.5ZM26.145 26.1975C21.4025 23.0125 13.6325 23.0125 8.855 26.1975C8.085 26.705 7.455 27.3 6.93 27.9475C4.27 25.2525 2.625 21.56 2.625 17.5C2.625 9.2925 9.2925 2.625 17.5 2.625C25.7075 2.625 32.375 9.2925 32.375 17.5C32.375 21.56 30.73 25.2525 28.07 27.9475C27.5625 27.3 26.915 26.705 26.145 26.1975Z" fill="#219EBC"/>
<path d="M17.5 8.62695C13.8775 8.62695 10.9375 11.567 10.9375 15.1895C10.9375 18.742 13.72 21.6295 17.4125 21.7345H17.57H17.6925H17.7275C21.2625 21.612 24.045 18.742 24.0625 15.1895C24.0625 11.567 21.1225 8.62695 17.5 8.62695Z" fill="#219EBC"/>
</svg>
